<?xml version="1.0" encoding="utf-8"?>
<!-- Svg Vector Icons : http://www.onlinewebfonts.com/icon -->
<!DOCTYPE svg PUBLIC "-//W3C//DTD SVG 1.1//EN" "http://www.w3.org/Graphics/SVG/1.1/DTD/svg11.dtd">
<svg version="1.1" xmlns="http://www.w3.org/2000/svg" xmlns:xlink="http://www.w3.org/1999/xlink" x="0px" y="0px" viewBox="0 0 1000 1000" enable-background="new 0 0 1000 1000" xml:space="preserve">
<metadata> Svg Vector Icons : http://www.onlinewebfonts.com/icon </metadata>
<g><g transform="translate(0.000000,511.000000) scale(0.100000,-0.100000)"><path fill="white" d="M4649.8,4871.2c-1243.3-110.4-2384.3-625.7-3212.5-1449.8c-376.3-376.2-636-736.1-871.1-1216.7C237,1529.9,98,904.2,100,98.5c0-464.2,28.6-719.8,124.7-1124.7c319-1351.6,1226.9-2472.2,2509-3095.9c568.5-276.1,1085.8-429.4,1760.6-515.3c300.6-40.9,1085.8-34.8,1388.4,10.2c691.2,100.2,1276,321,1848.6,701.4c372.2,245.4,576.7,482.6,576.7,666.6c0,79.8-55.2,190.2-135,269.9c-92,94.1-636,449.9-732.1,480.5c-128.8,40.9-314.9,16.4-456-61.3c-482.6-272-734.1-372.2-1139-454c-198.4-40.9-290.4-47-707.5-47c-421.3,0-509.2,6.1-713.7,47c-691.2,139.1-1273.9,443.7-1762.7,918.2c-470.3,456-752.5,963.1-889.5,1601.1c-30.7,139-38.8,263.8-38.8,613.5c0,472.4,24.5,646.2,145.2,1018.3c79.7,241.3,319,709.6,468.3,910c828.2,1112.4,2157.3,1601.1,3592.8,1323c1343.5-259.7,2292.3-1163.5,2523.3-2402.7c30.7-161.5,38.9-300.6,38.9-654.4c0-513.3-18.4-627.8-120.7-734.1c-116.5-126.8-374.2-153.4-560.3-61.3c-190.2,94.1-296.5,333.3-449.9,1010.2c-112.5,490.8-237.2,775-490.8,1118.5c-404.9,543.9-1040.8,844.5-1789.2,844.5c-625.7,0-1249.4-265.8-1637.9-697.3c-396.7-439.6-648.2-1034.7-678.9-1603.2c-40.9-730,317-1429.3,948.8-1854.7c595.1-400.8,1261.7-507.1,1875.1-298.5c513.3,175.8,1026.5,617.5,1165.6,1002l45,122.7l42.9-120.7c143.1-392.6,488.7-707.5,903.8-824.1c535.8-149.3,1102.2-10.2,1490.7,368.1c629.8,613.5,822,1785.2,498.9,3036.6C9299.8,3337.6,7794.8,4584.9,5844,4842.6C5543.4,4883.5,4936.1,4897.8,4649.8,4871.2z M5441.2,885.8c186.1-79.7,290.4-239.3,331.3-503c57.3-374.2-120.7-730-425.3-848.6c-167.7-65.4-443.7-65.4-586.9,0c-139,61.3-241.3,165.6-310.8,317c-51.1,112.5-57.3,147.2-57.3,349.7c0,206.5,4.1,233.1,55.2,331.3c106.3,198.4,247.4,319,451.9,386.5C5030.2,961.5,5306.2,945.1,5441.2,885.8z"/></g></g>
</svg>