<?xml version="1.0" encoding="utf-8"?>
<!-- Svg Vector Icons : http://www.onlinewebfonts.com/icon -->
<!DOCTYPE svg PUBLIC "-//W3C//DTD SVG 1.1//EN" "http://www.w3.org/Graphics/SVG/1.1/DTD/svg11.dtd">
<svg version="1.1" xmlns="http://www.w3.org/2000/svg" xmlns:xlink="http://www.w3.org/1999/xlink" x="0px" y="0px" viewBox="0 0 1000 1000" enable-background="new 0 0 1000 1000" xml:space="preserve">
<metadata> Svg Vector Icons : http://www.onlinewebfonts.com/icon </metadata>
<g><path d="M943.4,564c2.7-20.2,4.2-40.7,4.2-61.7c0-250.8-201.5-454.1-450-454.1c-24.7,0-48.9,2.1-72.5,6C382.9,26.2,332.6,10,278.5,10C130.1,10,10,131.9,10,282.4c0,54.8,15.9,105.6,43.2,148.4c-3.7,23.3-5.5,47.2-5.5,71.5c0,250.9,201.4,454.2,450,454.2c28,0,55.4-2.8,81.9-7.6c41.2,25.9,89.8,41.1,141.9,41.1C869.8,990,990,868,990,717.5C990,660.6,972.8,607.7,943.4,564z M529.8,753.6c-107.5,5.7-157.9-18.5-204-62.4c-51.5-49-30.8-105,11.1-107.8c41.9-2.9,67.1,48.2,89.5,62.4c22.3,14.2,107.4,46.4,152.4-5.7c48.9-56.7-32.6-86.1-92.2-95c-85.2-12.8-192.9-59.6-184.5-151.8c8.4-92.2,77.1-139.4,149.5-146c92.3-8.5,152.4,14.2,199.8,55.3c55,47.6,25.2,100.7-9.8,104.9c-34.9,4.3-74-78.2-150.9-79.4c-79.2-1.3-132.8,83.6-34.9,107.8c97.8,24.1,202.7,34.1,240.4,124.8C733.9,651.5,637.5,747.9,529.8,753.6z"/></g>
</svg>